<svg xmlns="http://www.w3.org/2000/svg" id="Calque_1" data-name="Calque 1" viewBox="0 0 1000 800"><defs><style>.cls-1{fill:#289ccc}</style></defs><path d="M375,346c16.51-11.55,90.66-63.76,91-64,0,0,8.5-6.67,22.75-3.31a1.2,1.2,0,0,0,1.47-1l26.52-136.79a22.78,22.78,0,0,0-11.11-23.84c-.36-.21-.74-.41-1.13-.6-14-7-23,1-23,1s-1.47.74-4,3.78a33.5,33.5,0,0,0-7.1,16L438.65,287.53a4.94,4.94,0,0,1-.78,2c-1.18,1.77-3.78,4.66-6-.13a4.82,4.82,0,0,1-.45-1.74l-1.53-123.93A23.54,23.54,0,0,0,421.18,147a22.25,22.25,0,0,0-16.68-4.51,22.85,22.85,0,0,0-16.17,8.56,24.38,24.38,0,0,0-5.06,16.6L375,339c.07,1.16-.95,7.67,0,7" class="cls-1"/><path d="M383,350l87.12-61.55a23.29,23.29,0,0,1,20.14-3.5A22.49,22.49,0,0,1,503,295c3.89,6.22,4.45,11.84,3.68,16.38a21.77,21.77,0,0,1-8.87,13.92l-49.83,36a14.13,14.13,0,0,0-4.64,5.56c-1.33,2.95-1.68,5.47-1.34,7.15,1,5,2.34,9.34,5.5,12.5,4,4,23.5,16.5,29.5,32.5a84.1,84.1,0,0,1,5.5,29.5S482,453,486,453s4-2,4-2-.5-24.5-6.5-34.5S475,402,463,391s-9.5-8.5-9.5-8.5a14.54,14.54,0,0,1-5-8A7.44,7.44,0,0,1,451,367l40.2-28.72a1.45,1.45,0,0,1,2.24.84c1.59,6.75,8.17,27.22,29.06,26.38,0,0,13.14.94,26.24-15.83a1.32,1.32,0,0,1,2.19.15A28.31,28.31,0,0,0,576,364c1,0,2.09,0,3.13.07,2.5.06,9.24-.81,19.38-9.72a.93.93,0,0,1,1.54.69v14a133.91,133.91,0,0,1-11.62,55.19A108.39,108.39,0,0,1,568,455c-23.56,24.41-45.71,31.81-52.14,33.55-1.33.36-2.65.74-4,1.17-7.53,2.46-32.4,5.78-54.4,2.78-2.41-.33-9.64-1.43-12-2-9-2.18-28.61-8-42.5-19.5-11.65-9.66-14.61-8.91-21.13-25.69A101.28,101.28,0,0,1,375,408.6V367A20.37,20.37,0,0,1,383,350Z" class="cls-1"/><path d="M553,291.85v39.52a40.32,40.32,0,0,0,3.56,15.25c2.5,5,6,8.89,16.94,9.88,12.49,1.14,19.25-4.5,22.88-9.25a17.25,17.25,0,0,0,3-7,46.52,46.52,0,0,0,1-10.66l-.37-36.89a27.52,27.52,0,0,0-4.3-14.74,23.61,23.61,0,0,0-19.25-10.5c-8.91,0-13.41,3.92-17.26,8.12A24,24,0,0,0,553,291.85Z" class="cls-1"/><path d="M539.11,258.86c5.84,6.39,6.61,14.52,6.89,18.14,1.67,21.66-.5,59.5-.5,59.5s-.07,9.91-10,17a22,22,0,0,1-14.51,4,26.85,26.85,0,0,1-18.43-10.31h0a17.86,17.86,0,0,1-3.56-10.7v-2.06a4.51,4.51,0,0,1,1.76-3.6A28.68,28.68,0,0,0,512,306c-.78-14-8.17-20.1-11.45-22.15A3.35,3.35,0,0,1,499,281v-8a21.32,21.32,0,0,1,4.24-11.43,23.62,23.62,0,0,1,20-9.37c4.46.15,9.49,1.22,13.52,4.47A20.45,20.45,0,0,1,539.11,258.86Z" class="cls-1"/><path d="M335.45,611.56H307.59l-5.79,18.53h-18l29-86h17.65l28.87,86h-18ZM311.84,598h19.42l-9.5-30.29h-.36Z"/><path d="M412,607.48h.35l22.08-63.34h22.49v86H439.71V571.41l-.36,0L418.1,630.09H406.41l-21.25-58.85-.36.06v58.79H367.57v-86h22.61Z"/><path d="M491.18,630.09H474v-86h17.23Z"/><path d="M572.71,601.64l.12.35q.23,13.75-8.38,21.55t-23.8,7.79q-15.46,0-25-9.94t-9.5-25.71V578.62q0-15.71,9.27-25.71t24.32-10q15.71,0,24.56,7.67T573,572.18l-.12.36H556.06q0-8.26-4-12.31t-12.31-4.05a13.89,13.89,0,0,0-12.07,6.23q-4.35,6.23-4.34,16.09v17.18q0,9.92,4.57,16.17a14.88,14.88,0,0,0,12.72,6.26q7.74,0,11.55-4t3.8-12.43Z"/><path d="M630,611.56H602.11l-5.79,18.53h-18l29-86H625l28.86,86h-18ZM606.36,598h19.42l-9.5-30.29h-.36Z"/><path d="M679.33,616.87h38.49v13.22H662.09v-86h17.24Z"/></svg>