<?xml version="1.0" encoding="iso-8859-1"?>
<!-- Generator: Adobe Illustrator 19.0.0, SVG Export Plug-In . SVG Version: 6.00 Build 0)  -->
<svg version="1.1" id="Capa_1" xmlns="http://www.w3.org/2000/svg" xmlns:xlink="http://www.w3.org/1999/xlink" x="0px" y="0px"
	 viewBox="0 0 512 512" style="enable-background:new 0 0 512 512;" xml:space="preserve">
<path style="fill:#FFBC05;" d="M213.333,93.867H179.2V128h34.133c0,18.85-15.283,34.133-34.133,34.133l0,0
	c-18.85,0-34.133-15.283-34.133-34.133H25.6c-9.429,0-17.067-7.637-17.067-17.067l0,0c0-9.429,7.637-17.067,17.067-17.067h119.467
	c0-18.85,15.283-34.133,34.133-34.133l0,0C198.05,59.733,213.333,75.017,213.333,93.867z"/>
<polygon style="fill:#23AEC8;" points="503.467,307.2 503.467,503.467 179.2,503.467 179.2,392.533 145.067,392.533 145.067,307.2 
	"/>
<path style="fill:#FBDEBA;" d="M93.867,128h-51.2v196.267c0,28.279,22.921,51.2,51.2,51.2h51.2v-51.2h-34.133
	c-9.429,0-17.067-7.637-17.067-17.067V128z"/>
<polygon style="fill:#1967A3;" points="273.067,307.2 273.067,392.533 409.6,392.533 409.6,307.2 443.733,307.2 443.733,392.533 
	503.467,452.267 503.467,503.467 179.2,503.467 179.2,452.267 238.933,392.533 238.933,307.2 "/>
<path style="fill:#FBDEBA;" d="M307.2,290.133v34.133c0,9.054,3.601,17.732,10.001,24.132l0,0c13.329,13.329,34.935,13.329,48.265,0
	l0,0c6.4-6.4,10.001-15.078,10.001-24.132v-34.133H307.2z"/>
<path style="fill:#E2B186;" d="M307.2,294.938v-4.804h68.267v34.133c-0.051,8.098-2.987,15.915-8.277,22.042
	C340.617,338.825,318.677,320.043,307.2,294.938z"/>
<path style="fill:#FBDEBA;" d="M435.2,110.933V204.8c0,51.84-42.027,93.867-93.867,93.867l0,0l0,0
	c-51.84,0-93.867-42.027-93.867-93.867v-93.867H435.2z"/>
<path style="fill:#D12136;" d="M315.733,230.4h51.2v8.533c0,14.14-11.46,25.6-25.6,25.6l0,0c-14.14,0-25.6-11.46-25.6-25.6V230.4z"
	/>
<g>
	<path style="fill:#FBDEBA;" d="M247.467,179.2H230.4c-9.429,0-17.067,7.637-17.067,17.067l0,0c0,9.429,7.637,17.067,17.067,17.067
		h17.067V179.2z"/>
	<path style="fill:#FBDEBA;" d="M435.2,179.2h17.067c9.429,0,17.067,7.637,17.067,17.067l0,0c0,9.429-7.637,17.067-17.067,17.067
		H435.2V179.2z"/>
</g>
<path style="fill:#D12136;" d="M247.467,110.933H435.2V102.4c0-51.84-42.027-93.867-93.867-93.867l0,0
	c-51.84,0-93.867,42.027-93.867,93.867V110.933z"/>
<path style="fill:#9C1928;" d="M349.867,110.933L349.867,110.933c0,18.85,15.283,34.133,34.133,34.133h102.4
	c0-18.85-15.283-34.133-34.133-34.133H349.867z"/>
<rect x="42.667" y="68.267" style="fill:#FBDEBA;" width="51.2" height="34.133"/>
<path style="fill:#FFBC05;" d="M247.467,153.6h25.6c23.561,0,42.667-19.106,42.667-42.667h-68.267V153.6z"/>
<g>
	<path style="fill:#E38100;" d="M179.2,96.179c-13.312,13.013-28.663,23.765-45.449,31.821h11.315
		c0,18.85,15.283,34.133,34.133,34.133S213.333,146.85,213.333,128H179.2V96.179z"/>
	<path style="fill:#E38100;" d="M201.984,68.617c-6.007,9.045-12.86,17.502-20.471,25.25h31.821
		C213.316,84.215,209.186,75.034,201.984,68.617z"/>
</g>
<path d="M341.333,273.067c18.85,0,34.133-15.283,34.133-34.133v-17.067H307.2v17.067C307.2,257.783,322.483,273.067,341.333,273.067
	z M358.4,238.933c0,9.429-7.637,17.067-17.067,17.067c-9.429,0-17.067-7.637-17.067-17.067H358.4z"/>
<path d="M503.467,298.667H384v-0.853c30.891-13.995,52.753-42.487,58.274-75.947h9.993c14.14,0,25.6-11.46,25.6-25.6
	c0-14.14-11.46-25.6-25.6-25.6l0,0h-8.533V153.6h51.2v-8.533c-0.026-23.552-19.115-42.641-42.667-42.667h-8.533
	c0-56.55-45.85-102.4-102.4-102.4s-102.4,45.85-102.4,102.4v68.267H230.4c-14.14,0-25.6,11.46-25.6,25.6
	c0,14.14,11.46,25.6,25.6,25.6h9.993c5.521,33.459,27.383,61.952,58.274,75.947v0.853h-153.6c-4.71,0-8.533,3.823-8.533,8.533v8.533
	h-25.6c-4.71,0-8.533-3.823-8.533-8.533V136.533h34.987c4.693,23.091,27.213,38.016,50.304,33.323
	c19.9-4.045,34.193-21.547,34.176-41.856v-8.533h-34.133V102.4h34.133v-8.533c0.026-23.561-19.063-42.684-42.624-42.709
	c-20.309-0.017-37.811,14.276-41.856,34.176H102.4V68.267c0-4.71-3.823-8.533-8.533-8.533h-51.2c-4.71,0-8.533,3.823-8.533,8.533
	v17.067H25.6c-14.14,0-25.6,11.46-25.6,25.6s11.46,25.6,25.6,25.6h8.533v187.733c0.043,32.973,26.761,59.691,59.733,59.733h42.667
	v8.533c0,4.71,3.823,8.533,8.533,8.533h25.6v102.4c0,4.71,3.823,8.533,8.533,8.533h324.267c4.71,0,8.533-3.823,8.533-8.533V307.2
	C512,302.49,508.177,298.667,503.467,298.667z M494.933,431.667l-42.667-42.667v-73.267h42.667V431.667z M452.267,187.733
	c4.71,0,8.533,3.823,8.533,8.533c0,4.71-3.823,8.533-8.533,8.533h-8.533v-17.067H452.267z M452.267,119.467
	c10.846,0.017,20.514,6.844,24.141,17.067H384c-10.846-0.017-20.514-6.844-24.141-17.067H452.267z M341.333,17.067
	c47.104,0.051,85.282,38.229,85.333,85.333H256C256.051,55.296,294.229,17.118,341.333,17.067z M306.116,119.467
	c-3.908,15.061-17.493,25.583-33.05,25.6H256v-25.6H306.116z M230.4,204.8c-4.71,0-8.533-3.823-8.533-8.533
	c0-4.71,3.823-8.533,8.533-8.533h8.533V204.8H230.4z M256,204.8v-42.667h17.067c24.96-0.043,46.251-18.065,50.432-42.667h18.688
	c4.079,19.849,21.547,34.108,41.813,34.133h42.667v51.2c0.119,35.174-21.487,66.773-54.306,79.42
	c-3.268,1.28-5.427,4.429-5.427,7.945v32.102c-0.017,6.784-2.714,13.286-7.501,18.099c-10.129,9.668-26.069,9.668-36.198,0
	c-4.787-4.813-7.484-11.315-7.501-18.099v-32.102c0-3.516-2.159-6.665-5.427-7.945C277.487,271.573,255.881,239.974,256,204.8z
	 M311.168,354.432c16.666,16.657,43.682,16.657,60.339-0.009c7.996-7.996,12.493-18.85,12.493-30.157v-8.533h17.067V384H281.6
	v-68.267h17.067v8.533C298.641,335.59,303.138,346.453,311.168,354.432z M51.2,76.8h34.133v17.067H51.2V76.8z M25.6,119.467
	c-4.71,0-8.533-3.823-8.533-8.533c0-4.71,3.823-8.533,8.533-8.533h8.533c0,4.71,3.823,8.533,8.533,8.533h51.2
	c4.71,0,8.533-3.823,8.533-8.533h51.2v-8.533c-0.009-14.14,11.452-25.609,25.583-25.617c10.863,0,20.54,6.844,24.158,17.084h-32.674
	v51.2h32.674c-4.702,13.329-19.328,20.326-32.657,15.625c-10.24-3.618-17.092-13.295-17.084-24.158v-8.533H25.6z M93.867,366.933
	c-23.552-0.026-42.641-19.115-42.667-42.667V136.533h34.133V307.2c0,14.14,11.46,25.6,25.6,25.6h25.6v34.133H93.867z M153.6,384
	v-68.267h76.8v73.267l-42.667,42.667v-39.134c0-4.71-3.823-8.533-8.533-8.533H153.6z M494.933,494.933h-307.2v-39.134l57.233-57.233
	c1.604-1.596,2.5-3.772,2.5-6.033v-76.8h17.067v76.8c0,4.71,3.823,8.533,8.533,8.533H409.6c4.71,0,8.533-3.823,8.533-8.533v-76.8
	H435.2v76.8c0,2.261,0.896,4.437,2.5,6.033l57.233,57.233V494.933z"/>
<path d="M307.2,204.8h17.067v-8.533c0-14.14-11.46-25.6-25.6-25.6s-25.6,11.46-25.6,25.6v8.533h17.067v-8.533
	c0-4.71,3.823-8.533,8.533-8.533s8.533,3.823,8.533,8.533V204.8z"/>
<path d="M375.467,196.267c0-4.71,3.823-8.533,8.533-8.533s8.533,3.823,8.533,8.533v8.533H409.6v-8.533c0-14.14-11.46-25.6-25.6-25.6
	c-14.14,0-25.6,11.46-25.6,25.6v8.533h17.067V196.267z"/>
<g>
</g>
<g>
</g>
<g>
</g>
<g>
</g>
<g>
</g>
<g>
</g>
<g>
</g>
<g>
</g>
<g>
</g>
<g>
</g>
<g>
</g>
<g>
</g>
<g>
</g>
<g>
</g>
<g>
</g>
</svg>
