<svg id="Calque_1" data-name="Calque 1" xmlns="http://www.w3.org/2000/svg" viewBox="0 0 1000 800"><defs><style>.cls-1{fill:#289ccc;}.cls-2{fill:#28cc43;}.cls-3{fill:#fff;}</style></defs><path d="M325.88,633.43h-33v35.71H275.64V583.19H331.9v13.28h-39v23.67h33Z"/><path d="M384.21,650.6H356.34l-5.78,18.54h-18l29-85.95h17.65l28.87,85.95h-18Zm-23.62-13.51H380l-9.51-30.29h-.35Z"/><path d="M434.74,669.14H417.5V583.19h17.24Z"/><path d="M469,634.78v34.36H451.8V583.19h29.75q14.7,0,23,6.7t8.29,18.68A18.88,18.88,0,0,1,509.33,620a24.56,24.56,0,0,1-10.24,7.76q7.61,2.24,11,7.5a23.78,23.78,0,0,1,3.33,13v6.32a31.28,31.28,0,0,0,1,7.53,10.39,10.39,0,0,0,3.33,5.81v1.24H499.91c-1.57-1.26-2.59-3.34-3-6.26a55.22,55.22,0,0,1-.68-8.44v-6.08q0-6.43-3.51-10t-9.95-3.57Zm0-13.28h12.22q7.26,0,10.8-3.07t3.54-9.09A12.54,12.54,0,0,0,492,600q-3.57-3.48-10.48-3.48H469Z"/><path d="M546.08,638v31.17H528.84V583.19h32.88q14.82,0,23.32,7.55t8.5,19.9q0,12.33-8.5,19.83T561.72,638Zm0-13.28h15.64q7.2,0,10.92-3.93a13.94,13.94,0,0,0,3.72-10,14.63,14.63,0,0,0-3.69-10.25q-3.69-4-10.95-4H546.08Z"/><path d="M623.11,655.92H661.6v13.22H605.88V583.19h17.23Z"/><path d="M719,650.6H691.12l-5.79,18.54h-18l29-85.95H714l28.86,85.95h-18Zm-23.61-13.51h19.42l-9.5-30.29h-.36Z"/><path d="M770,622.8h.35l18.78-39.61H808l-29.46,55.73v30.22H761.31V638l-29-54.84h18.89Z"/><path class="cls-1" d="M431.13,247.05,406.76,298.5A49.86,49.86,0,0,0,402,315.69c-.55,6.68-.55,14.47,3.9,18.92,0,0,7.42,8.9,28.19,7.42,0,0,13.36,0,19.3-17.81s22.26-50.46,22.26-50.46,1.48-5.93,8.9-5.93c6.82,0,75,1.25,86,1.45a11.86,11.86,0,0,1,5.45,1.36,9.78,9.78,0,0,1,3.49,3.12c3,4.46,108.33,97.95,108.33,97.95s14.84-11.87,17.81-22.26-4.45-23.74-4.45-23.74l-108.33-92s-5.94-4.46-16.33-4.46H453.39S438.55,229.24,431.13,247.05Z"/><path class="cls-2" d="M533.24,511.23,527.89,521a.74.74,0,0,0,.2.94l17.84,13.88c7.44,5.79,17.75,6.88,25.9,2.13a16.72,16.72,0,0,0,6.22-6h0a24.21,24.21,0,0,0-.82-28c-1.43-1.88-3.12-3.91-5.12-6.1l-73.88-66.56a5.35,5.35,0,0,1-1.79-3.35c-.1-1.07.18-2.14,1.66-2.28a4,4,0,0,1,3,1l85.2,72.63A22.62,22.62,0,0,0,605,504.6c.45-.09.9-.18,1.35-.3a18.76,18.76,0,0,0,10.21-7l3.72-5a18.29,18.29,0,0,0,3.17-15.49c-.12-.5-.27-1-.44-1.51a24.53,24.53,0,0,0-6.9-10.41l-77.78-70.7a3.52,3.52,0,0,1-1.15-3.22c.26-1.28,1.28-2.34,4.55-.71l83.55,71a26.66,26.66,0,0,0,20.22,6.43A17.34,17.34,0,0,0,656,463l6.67-8.16s9.65-12.62-3.71-24.49l-79-73.13a2.55,2.55,0,0,1-.19-3.64c.64-.64,1.71-1,3.49-.4l78.47,70.06a33.27,33.27,0,0,0,16.88,8.22l.35.06c6.54.95,14.61-1.55,19-6.47l5.47-6.08c4.45-7.91,1.48-19.79-3.4-24.76-.33-.33-3.65-3.61-4-3.93L571.57,277.66a.71.71,0,0,0-.48-.19L484.3,276a.73.73,0,0,0-.69.44l-25,57.43s-5.94,14.84-26.71,16.32c-12.09.87-23.17-3.8-30.33-7.85A22.26,22.26,0,0,1,390.34,325c0-.37-.07-.76-.1-1.15a51.6,51.6,0,0,1,4.53-25l18.56-41.06a.74.74,0,0,0-1.17-.85l-71,64.31a24.45,24.45,0,0,0-8.26,19.36c0,.47.07,1,.13,1.44a20.06,20.06,0,0,0,5.88,11.71l14.63,14.63a.74.74,0,0,0,.92.11c3.72-2.33,27.64-16.31,44-2.66,15.21,12.68,14.18,25.36,13.55,28.78a.62.62,0,0,0,.72.72c3.81-.69,18.89-2.47,31.73,9.09,12.39,11.15,10.3,23.34,9.27,27.06a.74.74,0,0,0,.81.94c4.69-.69,22.56-1.3,31.48,9.1,0,0,13.35,10.39,8.78,27.56-.1.35.38.62.74.61,4.05-.13,23.12-1.46,32,8.93,0,0,1.61,1.49,3,3C537.78,489.4,538.36,501.85,533.24,511.23Z"/><path class="cls-3" d="M412.65,256.67a.74.74,0,0,1,.68,1.05l-18.56,41.06a51.6,51.6,0,0,0-4.53,25c0,.39.06.78.1,1.15a22.26,22.26,0,0,0,11.2,17.38c6.57,3.72,16.45,8,27.38,8,1,0,2,0,2.95-.11,20.77-1.48,26.71-16.32,26.71-16.32l25-57.43a.75.75,0,0,1,.68-.44h0l86.79,1.47a.71.71,0,0,1,.48.19L696,390.26c.37.32,3.69,3.6,4,3.93,4.88,5,7.85,16.85,3.4,24.76L698,425c-3.81,4.22-10.29,6.67-16.19,6.67a20.34,20.34,0,0,1-2.85-.2l-.35-.06a33.27,33.27,0,0,1-16.88-8.22l-78.47-70.06a5.31,5.31,0,0,0-1.65-.3,2.49,2.49,0,0,0-1.84.7,2.55,2.55,0,0,0,.19,3.64l79,73.13c13.36,11.87,3.71,24.49,3.71,24.49L656,463a17.34,17.34,0,0,1-10.5,4.73,24.75,24.75,0,0,1-2.85.16,27,27,0,0,1-17.37-6.59l-83.55-71a6.51,6.51,0,0,0-2.75-.83,1.72,1.72,0,0,0-1.8,1.54,3.52,3.52,0,0,0,1.15,3.22l77.78,70.7A24.53,24.53,0,0,1,623,475.3c.17.51.32,1,.44,1.51a18.29,18.29,0,0,1-3.17,15.49l-3.72,5a18.81,18.81,0,0,1-10.21,7c-.45.12-.9.21-1.35.3a20.57,20.57,0,0,1-3.82.35,23.08,23.08,0,0,1-14.86-5.63l-85.2-72.63a4.11,4.11,0,0,0-2.65-1.05l-.33,0c-1.48.14-1.76,1.21-1.66,2.28a5.35,5.35,0,0,0,1.79,3.35l73.88,66.56c2,2.19,3.69,4.22,5.12,6.1a24.2,24.2,0,0,1,.81,28,16.62,16.62,0,0,1-6.21,6,22,22,0,0,1-11.15,3,24.08,24.08,0,0,1-14.75-5.11L528.09,522a.74.74,0,0,1-.2-.94l5.35-9.81c5.12-9.38,4.54-21.83-2.68-29.7-1.36-1.48-3-3-3-3-6.86-8-19.75-9.05-27.16-9.05-2.21,0-3.94.09-4.87.12h0c-.36,0-.81-.27-.72-.61,4.57-17.17-8.78-27.56-8.78-27.56-6.74-7.86-18.6-9.43-26-9.43a39.86,39.86,0,0,0-5.47.33h-.11a.74.74,0,0,1-.7-.95c1-3.72,3.12-15.91-9.27-27.06a37.51,37.51,0,0,0-25.43-9.62,36.14,36.14,0,0,0-6.3.53h-.11a.62.62,0,0,1-.61-.73c.63-3.42,1.66-16.1-13.55-28.78a26,26,0,0,0-17.12-5.9c-12.5,0-24.38,7-26.91,8.56a.79.79,0,0,1-.39.11.79.79,0,0,1-.53-.22L338.9,353.69A20.06,20.06,0,0,1,333,342c-.06-.48-.1-1-.13-1.44a24.45,24.45,0,0,1,8.26-19.36l71-64.31a.7.7,0,0,1,.49-.2m0-4a4.77,4.77,0,0,0-3.2,1.24l-71,64.31a28.32,28.32,0,0,0-9.58,22.58c0,.56.08,1.13.15,1.69a24.19,24.19,0,0,0,7,14.08l14.64,14.63a4.74,4.74,0,0,0,3.37,1.4,4.68,4.68,0,0,0,2.52-.73c2.13-1.32,13.31-7.94,24.78-7.94a22,22,0,0,1,14.54,5c13.47,11.22,12.72,21.94,12.17,25a4.64,4.64,0,0,0,4.57,5.48,4.56,4.56,0,0,0,.82-.08,32.62,32.62,0,0,1,5.59-.46,33.54,33.54,0,0,1,22.74,8.58c10.73,9.66,8.9,20,8.08,23a4.77,4.77,0,0,0,4.58,6.06,4.14,4.14,0,0,0,.7-.06,36.37,36.37,0,0,1,4.88-.29c4.83,0,16.74.79,23,8l.26.31.32.25c.45.35,11.17,9.06,7.37,23.34a4.31,4.31,0,0,0,.77,3.81,4.86,4.86,0,0,0,3.84,1.87h.17l.72,0c1,0,2.34-.1,4-.1,8,0,18.68,1.33,24.1,7.65l.15.18.17.16s1.51,1.4,2.74,2.73c5.74,6.25,6.63,16.78,2.12,25.05l-5.36,9.82a4.75,4.75,0,0,0,1.26,6L543.46,539a28.21,28.21,0,0,0,17.22,6,26.18,26.18,0,0,0,13.18-3.53,20.65,20.65,0,0,0,7.61-7.36,28.25,28.25,0,0,0-1-32.6c-1.56-2.05-3.37-4.2-5.36-6.38L575,495l-.14-.13-.74-.67,9.6,8.19a27,27,0,0,0,17.47,6.6,25,25,0,0,0,4.57-.42c.54-.1,1.08-.22,1.6-.36a22.73,22.73,0,0,0,12.43-8.53l3.72-4.95a22.18,22.18,0,0,0,3.85-18.92c-.15-.58-.32-1.17-.51-1.76a28.65,28.65,0,0,0-8-12.13L604.55,449l18.08,15.37a31,31,0,0,0,20,7.55,30.64,30.64,0,0,0,3.32-.19,21.17,21.17,0,0,0,12.87-5.88l.15-.15.12-.15,6.68-8.16,0-.05,0-.06a22.72,22.72,0,0,0,3.94-9.6,20.87,20.87,0,0,0-5.11-17.22,36,36,0,0,0,13.31,5l.38.06a24.12,24.12,0,0,0,3.44.24c7.28,0,14.81-3.14,19.18-8l5.47-6.08.3-.33.22-.39c2.49-4.43,3.29-10.16,2.26-16.14-.94-5.4-3.24-10.29-6.29-13.41-.14-.13-3.43-3.4-4.2-4.1h0L574.28,274.67a4.78,4.78,0,0,0-3.12-1.23L484.37,272h-.08a4.76,4.76,0,0,0-4.37,2.86l-25,57.43,0,.05,0,.06c-.2.49-5.44,12.53-23.26,13.8-.87.07-1.77.1-2.66.1-10.14,0-19.4-4-25.39-7.43a18.28,18.28,0,0,1-9.18-14.25q0-.52-.09-1.08a47.66,47.66,0,0,1,4.18-23.07L417,259.38a4.77,4.77,0,0,0-4.35-6.74Z"/><path class="cls-2" d="M286.79,254.52l99.28-80.42a43.41,43.41,0,0,1,34-9.48c6.54,1,13.12,3.74,18,9.54.44.52.87,1.05,1.28,1.58,11.12,14.37,8.58,35.06-5.13,47l-97.26,84.55a42,42,0,0,1-28.07,10.56,35.59,35.59,0,0,1-24.18-9.64c-.42-.39-.83-.78-1.22-1.17C268.7,292.22,270.54,267.68,286.79,254.52Z"/><path class="cls-1" d="M651.29,173.81l94.65,85.81a43.39,43.39,0,0,1,14.56,32.11c0,6.62-1.69,13.54-6.66,19.26-.45.52-.91,1-1.37,1.52-12.5,13.18-33.33,13.84-47.21,2.11l-98.43-83.18a42,42,0,0,1-14.73-26.13,35.61,35.61,0,0,1,5.83-25.37c.32-.47.64-.93,1-1.38C611.26,161.69,635.8,159.76,651.29,173.81Z"/><path class="cls-1" d="M334.66,398.42l28.11-25.3a19.77,19.77,0,0,1,4.3-2.95c4.44-2.25,13.51-5.72,21-1.43,10.39,5.94,14.84,13.36,14.84,13.36s5.94,10.39-3,20.77c-7,8.22-24.3,21.08-31.21,26.1a19.56,19.56,0,0,1-7.67,3.4c-4.13.85-10.13,1.35-14.54-1.3a56.76,56.76,0,0,1-10.11-8.25,19.63,19.63,0,0,1-5.83-16.76A11.72,11.72,0,0,1,334.66,398.42Z"/><path class="cls-1" d="M376.22,434l28.11-25.3a19.75,19.75,0,0,1,4.29-3c4.45-2.25,13.51-5.71,21-1.42,10.39,5.94,14.84,13.36,14.84,13.36s5.94,10.38-3,20.77c-7,8.22-24.3,21.08-31.2,26.1a20,20,0,0,1-7.68,3.4c-4.13.84-10.12,1.35-14.54-1.3A56.76,56.76,0,0,1,378,458.44a19.68,19.68,0,0,1-5.83-16.76A11.69,11.69,0,0,1,376.22,434Z"/><path class="cls-1" d="M417.77,471.14l28.11-25.3a19.58,19.58,0,0,1,4.3-3c4.44-2.25,13.5-5.71,21-1.42C481.58,447.4,486,454.82,486,454.82s5.93,10.38-3,20.77c-7.05,8.22-24.3,21.08-31.21,26.1a19.9,19.9,0,0,1-7.68,3.4c-4.13.84-10.12,1.35-14.54-1.3a57.12,57.12,0,0,1-10.11-8.25,19.68,19.68,0,0,1-5.83-16.76A11.74,11.74,0,0,1,417.77,471.14Z"/><path class="cls-1" d="M460.81,508.24l28.11-25.3a20.11,20.11,0,0,1,4.29-3c4.45-2.24,13.51-5.71,21-1.42,10.39,5.94,14.84,13.36,14.84,13.36s5.94,10.39-3,20.77c-7,8.22-24.3,21.08-31.2,26.1a19.82,19.82,0,0,1-7.68,3.4c-4.13.85-10.12,1.35-14.54-1.3a56.76,56.76,0,0,1-10.11-8.25,19.67,19.67,0,0,1-5.83-16.76A11.69,11.69,0,0,1,460.81,508.24Z"/></svg>