<svg xmlns="http://www.w3.org/2000/svg" id="Calque_1" data-name="Calque 1" viewBox="0 0 1000 800"><defs><style>.cls-1,.cls-2{fill:#28cc43}.cls-2,.cls-3{stroke:#fff;stroke-miterlimit:10}.cls-3{fill:#fff}</style></defs><path d="M506.53,634.35q-4,5.25-12,9.12T474,647.33q-15.58,0-25.5-9.8t-9.92-25.44v-18q0-15.58,9.62-25.41t24.74-9.83q15.76,0,24.14,7.47t8.09,19.92l-.12.36H488.82q0-6.85-4-10.66t-11.51-3.81a15.49,15.49,0,0,0-12.75,6.11q-4.85,6.12-4.84,15.74v18.06q0,9.74,5,15.88A16.19,16.19,0,0,0,474,634.11a30.46,30.46,0,0,0,9.71-1.24,14.87,14.87,0,0,0,5.52-3.13V613.09H472.7V601.17h33.83Z"/><path d="M587.05,634.35q-4,5.25-12,9.12t-20.55,3.86q-15.59,0-25.5-9.8t-9.92-25.44v-18q0-15.58,9.62-25.41t24.74-9.83q15.76,0,24.14,7.47t8.09,19.92l-.12.36H569.34q0-6.85-4-10.66t-11.51-3.81a15.49,15.49,0,0,0-12.75,6.11q-4.85,6.12-4.84,15.74v18.06q0,9.74,5,15.88a16.19,16.19,0,0,0,13.28,6.14,30.46,30.46,0,0,0,9.71-1.24,14.87,14.87,0,0,0,5.52-3.13V613.09H553.22V601.17h33.83Z"/><path d="M445.75,510.26h72.13c2.93,0,4-2.41,3.9-5.33l-4.91-155.57a5.19,5.19,0,0,0-5.19-5.05H423.8a5.21,5.21,0,0,0-5.17,5.72l6.07,53.4a6.18,6.18,0,0,1-4.19,6.48l-13.45,4.48a80,80,0,0,1-53.11-.53c-18.34-6.81-37.16-21.1-39.11-51-3.89-59.72,27.27-75.3,27.27-75.3,46.74-32.46,87,11.68,87,11.68l4.6,4.6a5.2,5.2,0,0,0,7.51-.16L477,264.61a5.17,5.17,0,0,0,1-5.46c-4.49-11-23.65-47.4-81.94-54-68.82-7.79-102.57,23.37-102.57,23.37s-50.64,37.66-55.83,110.36,37.65,109.06,37.65,109.06c37.65,40.25,73,43.37,95.17,44.95,18.18,1.3,47.09-6.29,63.93-11.32A5.18,5.18,0,0,1,441,487l-1.73,17.71C439,507.68,442.72,510.26,445.75,510.26Z" class="cls-1"/><path d="M679,510.26H751.1c2.93,0,4-2.41,3.9-5.33l-4.91-155.57a5.19,5.19,0,0,0-5.19-5.05H657a5.19,5.19,0,0,0-5.16,5.72l6.06,53.4a6.18,6.18,0,0,1-4.19,6.48l-13.45,4.48a80,80,0,0,1-53.11-.53c-18.34-6.81-37.16-21.1-39.11-51-3.89-59.72,27.27-75.3,27.27-75.3,46.74-32.46,87,11.68,87,11.68l4.6,4.6a5.2,5.2,0,0,0,7.51-.16l35.76-39.11a5.17,5.17,0,0,0,1-5.46c-4.49-11-23.65-47.4-81.94-54-68.82-7.79-102.57,23.37-102.57,23.37S476,266.18,470.81,338.88s37.65,109.06,37.65,109.06c37.65,40.25,73,43.37,95.17,44.95,18.18,1.3,47.09-6.29,63.93-11.32a5.18,5.18,0,0,1,6.66,5.38l-1.73,17.71C672.26,507.68,675.94,510.26,679,510.26Z" class="cls-2"/><path d="M607.57,203.9a193.69,193.69,0,0,1,21.64,1.25c58.29,6.6,77.45,43,81.94,54a5.17,5.17,0,0,1-1,5.46l-35.76,39.11a5.21,5.21,0,0,1-7.51.16l-4.6-4.6s-21.51-23.6-51.35-23.6c-11,0-23.07,3.19-35.63,11.92,0,0-31.16,15.58-27.27,75.3,2,29.86,20.77,44.15,39.11,51a77.26,77.26,0,0,0,27,4.8,82.65,82.65,0,0,0,26.11-4.27l13.45-4.48a6.18,6.18,0,0,0,4.19-6.48L651.86,350a5.19,5.19,0,0,1,5.16-5.72H744.9a5.19,5.19,0,0,1,5.19,5.05L755,504.93c.08,2.92-1,5.33-3.9,5.33H679c-3,0-6.71-2.58-6.48-5.6L674.22,487a5.18,5.18,0,0,0-5.16-5.6,5.29,5.29,0,0,0-1.5.22C652,486.21,626.18,493,608,493c-1.51,0-3-.05-4.37-.15-22.17-1.58-57.52-4.7-95.17-44.95,0,0-42.84-36.35-37.65-109.06s55.83-110.36,55.83-110.36,26.67-24.62,80.93-24.62m0-8v0c-54.15,0-82.52,23.37-86,26.45-2.18,1.68-14.5,11.54-27.36,29.42a168.84,168.84,0,0,0-31.35,86.54C460,377.83,471,407,480.69,424.55s20,27.21,22.2,29.15c40.29,42.89,79.23,45.67,100.17,47.17,1.56.11,3.22.17,4.94.17,17.15,0,40.22-5.53,57.85-10.63l-1.32,13.47V504a12.23,12.23,0,0,0,3.39,9.32A15.56,15.56,0,0,0,679,518.26H751.1a11.5,11.5,0,0,0,8.37-3.43c1.69-1.73,3.67-4.9,3.52-10.13l-4.9-155.59a13.12,13.12,0,0,0-13.19-12.8H657a13.2,13.2,0,0,0-13.12,14.52v.1l5.89,51.86-12,4a74.53,74.53,0,0,1-23.58,3.86,69.1,69.1,0,0,1-24.21-4.3c-21.11-7.84-32.52-22.64-33.92-44-1.44-22.12,2.12-40.87,10.31-54.22,5.78-9.43,12-13.1,12.6-13.43l.57-.26.37-.3c10-7,20.47-10.49,31.07-10.49,25.81,0,45.26,20.8,45.46,21l.11.12.13.13,4.6,4.6a13.19,13.19,0,0,0,19.06-.43L716.08,270a13.23,13.23,0,0,0,2.48-13.89c-4.93-12-25.86-51.82-88.45-58.9a199.78,199.78,0,0,0-22.54-1.31Z" class="cls-3"/></svg>