<svg id="Calque_1" data-name="Calque 1" xmlns="http://www.w3.org/2000/svg" viewBox="0 0 691 459"><defs><style>.cls-1{fill:#87cb28;}</style></defs><path class="cls-1" d="M663.21,172.44a38.5,38.5,0,0,0-4.71-4.12l-6.74-5.06c-1.25-.93-6.44-4.66-7.78-5.44L384.32,7.89S374.17,1.33,351,1.33l-78.53.36A33.94,33.94,0,0,1,269,1.55c-4.62-.46-21.31-.92-31.26,14.8a31.62,31.62,0,0,0-4.7,16.93v395.3a32,32,0,0,0,1.39,9.48c2.56,8.2,9.62,21.29,28.68,21.29h78a92.61,92.61,0,0,0,23.77-3.07c9.94-2.63,23.69-7.16,36-14.31L647.87,297a79.6,79.6,0,0,0,17.68-14.07C682.76,264.64,711.29,222.58,663.21,172.44ZM524.37,260.39,468.24,293.1l-55.82,32.53c-24.72,14.4-55.75-3.39-55.82-32l-.16-65-.16-65c-.07-28.6,30.88-46.54,55.66-32.26l56,32.26,56.28,32.43C548.93,210.39,549,246,524.37,260.39Z"/><path class="cls-1" d="M30.08,457.83H117.8c16.16,0,29.26-12.52,29.26-28V28.5C147.06,13.06,134,.55,117.8.55H31C14.34.55.82,13.46.82,29.39V429.87C.82,445.31,13.92,457.83,30.08,457.83Z"/></svg>