<svg id="Calque_1" data-name="Calque 1" xmlns="http://www.w3.org/2000/svg" viewBox="0 0 749 800"><defs><style>.cls-1{fill:none;}.cls-2{fill:#fff;}.cls-3{fill:#87cb28;}</style></defs><rect class="cls-1" x="-157" width="1000" height="800"/><path class="cls-2" d="M65.31,714v85.3h-45V564.11h85.83q38.67,0,60.86,20.68t22.19,54.45q0,33.76-22.19,54.28T106.14,714Zm0-36.35h40.83q18.8,0,28.5-10.75t9.71-27.38q0-17-9.63-28t-28.58-11.07H65.31Z"/><path class="cls-2" d="M260.39,763.15H360.85v36.19H215.4V564.11h45Z"/><path class="cls-2" d="M504.63,748.61H431.9l-15.1,50.73h-47l75.66-235.23h46.07l75.35,235.23h-47Zm-61.64-37h50.7l-24.81-82.87H468Z"/><path class="cls-2" d="M631.76,672.52h.92l49-108.41H731L654.1,716.62v82.72h-45V714.2L533.45,564.11h49.31Z"/><path class="cls-3" d="M703.31,179a39.44,39.44,0,0,0-4.87-4.25l-7-5.23c-1.29-1-6.65-4.81-8-5.62L415.25,9.09s-10.48-6.78-34.38-6.78l-81.1.37a33.53,33.53,0,0,1-3.61-.15c-4.77-.47-22-.94-32.29,15.29A32.71,32.71,0,0,0,259,35.31V443.6a32.78,32.78,0,0,0,1.44,9.79c2.64,8.48,9.94,22,29.62,22h80.57a95.48,95.48,0,0,0,24.55-3.17c10.27-2.72,24.48-7.39,37.21-14.78L687.46,307.71a82.31,82.31,0,0,0,18.27-14.54C723.49,274.28,753,230.83,703.31,179ZM559.9,269.88l-58,33.78-57.66,33.6c-25.53,14.88-57.58-3.49-57.65-33l-.16-67.09L386.29,170c-.07-29.55,31.89-48.07,57.49-33.32L501.6,170l58.14,33.5C585.27,218.24,585.36,255.05,559.9,269.88Z"/><path class="cls-3" d="M49.37,473.81H140c16.69,0,30.22-12.93,30.22-28.88V30.37C170.19,14.43,156.66,1.5,140,1.5H50.33c-17.22,0-31.18,13.34-31.18,29.8V444.93C19.15,460.88,32.68,473.81,49.37,473.81Z"/></svg>