<svg xmlns="http://www.w3.org/2000/svg" viewBox="0 0 512 512"><defs><style>.cls-1{fill:#87cb28}.cls-2{fill:#fff6e0}.cls-3{fill:#ffea00}.cls-4{fill:#ffd900}.cls-5{fill:#52d1dc}</style></defs><g id="Calque_2" data-name="Calque 2"><path d="M30.84,142.48,6.57,64.82s13.37-23.37,32.9-14.56l17.8,14,52.31,166.65s8.85,5.46,15.11,0L181.85,53s33.44-24.27,40.45,19.41l-30.2,95.46s-42.61,34-30.2,94.92l-22.65,57.62s-34,27.06-48.54-6.92Z" class="cls-1"/><circle cx="249.54" cy="240.33" r="89.8" class="cls-2"/><polygon points="253.58 139.79 199.65 260.6 241.18 269.23 246.03 358.75 300.23 220.69 286.46 219.95 260.06 218.53 253.58 139.79" class="cls-3"/><polygon points="243.88 262.21 267.06 215.83 300.23 223.38 256 345.81 246.57 325.85 243.88 264.91 243.88 262.21" class="cls-4"/><path d="M472.55,195.88c-2.16,0-70.27-40.4-119.19,0L335,210.44s24.27,35.59-9.17,83.05c0,0,44.85,36.61,85.22,49.08,0,0,11.86-7.55,43.68,29.67,0,0,18.88,29.12-24.27,43.68,0,0-29.66,10.79-56.09-4.31,0,0-32.36-27-35.05-26.43s-44.77-7.1-28.59,34.47c0,0,38.29,54,120.27,40.5,0,0,71.73-7,71.19-86.84,0,0,10.95-31.42-67.41-75.5,0,0-47.07-3.26-62.56-24.81,0,0-23.73-33.44,19.41-45.84,0,0,28.59-14.56,76.59,22.11,0,0,23.73,7.55,28-33.44Z" class="cls-5"/></g><g id="Layer_1" data-name="Layer 1"><path d="M506.48,351.72c-6.61-16.39-25.35-46.15-76.46-61.39-21.11-6.29-60.41-18-58.66-35.07,1.63-15.95,19-23.08,35.4-23.08,25.89,0,47.71,17.28,48,17.5,30.48,22.94,67.47-21.58,38.82-47.06-41.94-35.93-112.7-45.76-155.77-6.69a98.79,98.79,0,0,0-70.74-52V117.6c0-8-11.34-10.27-14.42-2.89l-11.85,28.43a96.83,96.83,0,0,0-37.69,12l24.09-73.26c5.19-15.77-3.45-33.41-19.22-38.71s-33.18,3.67-38.36,19.42l-54,164L79.92,122.64c-3.14-9.15-17.32-4.27-14.18,4.87l35.71,103.92a15,15,0,0,0,28.48-.19l53.93-164a15.43,15.43,0,0,1,19.34-9.88A15.85,15.85,0,0,1,213,77.2l-30.89,93.89a100.16,100.16,0,0,0-28,85.7c-.25.43-18.35,55.28-18.35,55.28-6.46,18.58-32.29,18.63-39,.19L15.86,77A15.69,15.69,0,0,1,25.34,57a15.42,15.42,0,0,1,19.48,9.6L54.3,94.22c3.14,9.15,17.33,4.28,14.18-4.87L59,61.76A30.57,30.57,0,0,0,20.38,42.87a30.73,30.73,0,0,0-18.7,39L82.56,317.19c11.54,31.89,56.24,31.67,67.36-.38l11.49-34.91a98.13,98.13,0,0,0,76.68,57.66v25.85c0,8.06,11.52,10.26,14.48,2.75l11.26-28.64a98.24,98.24,0,0,0,63-35.61c18.14,21.86,47.12,29.47,83.47,43.7,23.35,8.39,36.83,22.08,39.47,31.24,4.15,14.39-12.4,26.38-24.32,29.76-9.31,2.65-5.24,17.08,4.09,14.43,20.14-5.72,41.19-25.62,34.64-48.34-5.61-19.48-29.79-34.37-48.74-41.19-29.72-11-44.64-16.58-60.24-25.16a57,57,0,0,1-19.44-17.51A100.39,100.39,0,0,0,344,210.9c36.67-38.45,102.23-29,139.84,3.15,14.22,12.08-5.25,35.31-19.78,23.89-1.06-.85-26.22-20.76-57.32-20.76-22.54,0-47.77,11.68-50.32,36.55-3,29.41,40.5,42.39,69.3,51,36.35,9.51,86.11,45.17,67.2,97.66A77.48,77.48,0,0,1,464.54,439c-45,32.06-113.26,14.93-147.5-23.63-12.29-13.7,10.13-35,22.65-21.07,11,12.26,27.65,22.27,45.67,27.47,9.29,2.68,13.45-11.73,4.16-14.41-15.17-4.38-29.62-13-38.66-23.08-26.61-28.19-69.92,12.08-45,41.11,39.08,44.1,116.27,62.38,167.25,25.91A92.71,92.71,0,0,0,507,407.49c6.8-18.75,6.61-38-.56-55.77ZM253.09,325.85V265.32a7.49,7.49,0,0,0-7.5-7.49H209.24l42.82-102.74v62.6a7.5,7.5,0,0,0,7.5,7.5h33.12Zm-85.22-84.34c-.64-38.63,28.37-74.87,66.17-82.16l-43,103.09A7.57,7.57,0,0,0,198,272.82h40.1V324.4C198.13,318.18,167.87,283.21,167.87,241.51ZM270.3,323.07l40.37-102.64a7.58,7.58,0,0,0-7-10.24H267.06v-51C353.77,178.61,356.11,300.27,270.3,323.07Z"/></g></svg>